<svg width="20" height="20" viewBox="0 0 20 20" fill="none" xmlns="http://www.w3.org/2000/svg">
<g id="004-instagram">
<path id="Shape" fill-rule="evenodd" clip-rule="evenodd" d="M6.25 0H13.75C17.2013 0 20 2.79875 20 6.25V13.75C20 17.2013 17.2013 20 13.75 20H6.25C2.79875 20 0 17.2013 0 13.75V6.25C0 2.79875 2.79875 0 6.25 0ZM13.75 18.125C16.1625 18.125 18.125 16.1625 18.125 13.75V6.25C18.125 3.8375 16.1625 1.875 13.75 1.875H6.25C3.8375 1.875 1.875 3.8375 1.875 6.25V13.75C1.875 16.1625 3.8375 18.125 6.25 18.125H13.75Z" fill="white"/>
<path id="Shape_2" fill-rule="evenodd" clip-rule="evenodd" d="M5 10C5 7.23875 7.23875 5 10 5C12.7613 5 15 7.23875 15 10C15 12.7613 12.7613 15 10 15C7.23875 15 5 12.7613 5 10ZM6.875 10C6.875 11.7225 8.2775 13.125 10 13.125C11.7225 13.125 13.125 11.7225 13.125 10C13.125 8.27625 11.7225 6.875 10 6.875C8.2775 6.875 6.875 8.27625 6.875 10Z" fill="white"/>
<circle id="Oval" cx="15.3752" cy="4.62719" r="0.66625" fill="white"/>
</g>
</svg>
