<svg width="19" height="18" viewBox="0 0 19 18" fill="none" xmlns="http://www.w3.org/2000/svg">
<path id="snapchat" d="M18.207 13.17C17.867 12.24 15.807 12.11 14.847 9.98C14.787 9.82 14.797 9.71 14.957 9.61C15.697 9.12 16.217 8.85 16.517 8.28C16.737 7.87 16.767 7.39 16.597 6.95C16.367 6.34 15.787 5.95 15.077 5.95C14.827 5.95 14.627 6 14.527 6.02C14.537 5.6 14.527 5.16 14.487 4.72C14.357 3.19 13.817 2.38 13.257 1.74C12.927 1.37 11.617 0 9.13697 0C6.65697 0 5.34697 1.37 5.01697 1.74C4.45697 2.38 3.91697 3.19 3.78697 4.72C3.75697 5.16 3.74697 5.6 3.74697 6.02C3.63697 5.99 3.44697 5.95 3.19697 5.95C2.49697 5.95 1.90697 6.33 1.67697 6.95C1.50697 7.38 1.53697 7.87 1.75697 8.28C2.06697 8.86 2.57697 9.12 3.31697 9.61C3.47697 9.72 3.48697 9.82 3.42697 9.98C2.45697 12.11 0.40697 12.24 0.0669695 13.17C-0.0830305 13.57 0.0169694 14.02 0.386969 14.4C0.956969 14.99 2.01697 15.17 2.22697 15.31C2.39697 15.45 2.37697 15.87 2.85697 16.21C3.23697 16.47 3.65697 16.49 4.10697 16.5C5.41697 16.55 5.70697 16.77 6.20697 17.08C6.83697 17.47 7.69697 18 9.13697 18C10.577 18 11.437 17.47 12.067 17.08C12.567 16.77 12.857 16.55 14.167 16.5C14.617 16.48 15.037 16.47 15.417 16.21C15.907 15.87 15.887 15.45 16.047 15.31C16.257 15.17 17.317 14.99 17.887 14.4C18.257 14.02 18.357 13.57 18.207 13.17ZM17.177 13.7C16.807 14.09 15.917 14.2 15.447 14.52C14.967 14.94 15.047 15.26 14.857 15.39C14.727 15.48 14.497 15.49 14.137 15.51C12.737 15.56 12.227 15.82 11.617 16.2C10.187 17.08 9.38697 17 9.13697 17C8.88697 17 8.08697 17.08 6.66697 16.19C6.05697 15.81 5.55697 15.56 4.14697 15.5C3.78697 15.49 3.55697 15.47 3.42697 15.38C3.23697 15.25 3.30697 14.93 2.83697 14.51C2.35697 14.19 1.47697 14.08 1.10697 13.69C1.04697 13.63 0.996969 13.55 0.986969 13.54C1.05697 13.44 1.39697 13.24 1.64697 13.1C2.42697 12.64 3.62697 11.96 4.35697 10.35C4.61697 9.65 4.38697 9.09 3.87697 8.76C2.72697 8.03 2.74697 8 2.63697 7.8C2.59747 7.72333 2.57439 7.63926 2.56923 7.55316C2.56406 7.46707 2.57692 7.38084 2.60697 7.3C2.72697 6.98 3.05697 6.95 3.18697 6.95C3.37697 6.95 3.36697 6.96 4.75697 7.32C4.73697 5.92 4.71697 5.47 4.77697 4.81C4.88697 3.5 5.34697 2.88 5.75697 2.41C6.03697 2.11 7.12697 0.98 9.13697 1C11.147 0.98 12.237 2.11 12.507 2.41C12.917 2.88 13.377 3.5 13.487 4.81C13.547 5.47 13.527 5.92 13.507 7.32C14.907 6.96 14.887 6.95 15.077 6.95C15.217 6.95 15.537 6.98 15.657 7.3C15.727 7.47 15.717 7.65 15.627 7.8C15.517 8 15.537 8.02 14.397 8.77C13.887 9.1 13.657 9.66 13.917 10.36C14.647 11.97 15.847 12.65 16.627 13.11C16.877 13.26 17.217 13.45 17.287 13.55C17.287 13.56 17.227 13.64 17.177 13.7Z" fill="white"/>
</svg>
